<mxfile host="app.diagrams.net" modified="2023-04-22T12:38:52.255Z" agent="Mozilla/5.0 (Windows NT 10.0; Win64; x64) AppleWebKit/537.36 (KHTML, like Gecko) Chrome/112.0.0.0 Safari/537.36" etag="zJ3Y9eZHy7v8zHuGMWfq" version="21.2.1" type="github">
  <diagram name="Page-1" id="oN-aEqpqWqQN_HSQAH9y">
    <mxGraphModel dx="1134" dy="681" grid="1" gridSize="10" guides="1" tooltips="1" connect="1" arrows="1" fold="1" page="1" pageScale="1" pageWidth="850" pageHeight="1100" math="0" shadow="0">
      <root>
        <mxCell id="0" />
        <mxCell id="1" parent="0" />
        <mxCell id="YGYwwZZyrYNIG7kx0JeW-1" value="" style="group;fontColor=#575757;" vertex="1" connectable="0" parent="1">
          <mxGeometry x="230" y="160" width="270" height="470" as="geometry" />
        </mxCell>
        <mxCell id="YGYwwZZyrYNIG7kx0JeW-2" value="" style="group" vertex="1" connectable="0" parent="YGYwwZZyrYNIG7kx0JeW-1">
          <mxGeometry x="-10" width="270" height="470" as="geometry" />
        </mxCell>
        <mxCell id="YGYwwZZyrYNIG7kx0JeW-3" value="" style="rounded=0;whiteSpace=wrap;html=1;sketch=1;curveFitting=1;jiggle=2;fillColor=default;strokeColor=#575757;" vertex="1" parent="YGYwwZZyrYNIG7kx0JeW-2">
          <mxGeometry width="260" height="470" as="geometry" />
        </mxCell>
        <mxCell id="YGYwwZZyrYNIG7kx0JeW-4" value="" style="rounded=0;whiteSpace=wrap;html=1;fillColor=#D9D9D9;strokeColor=#575757;sketch=1;curveFitting=1;jiggle=2;" vertex="1" parent="YGYwwZZyrYNIG7kx0JeW-2">
          <mxGeometry width="260" height="470" as="geometry" />
        </mxCell>
        <mxCell id="YGYwwZZyrYNIG7kx0JeW-5" value="&amp;nbsp; &amp;nbsp; &amp;nbsp;Language Preferences" style="text;strokeColor=#575757;align=left;fillColor=#878787;html=1;verticalAlign=middle;whiteSpace=wrap;rounded=0;fontStyle=1;fontSize=14;shadow=0;sketch=1;curveFitting=1;jiggle=2;fontFamily=Helvetica;fontColor=#242424;" vertex="1" parent="YGYwwZZyrYNIG7kx0JeW-2">
          <mxGeometry width="260" height="40" as="geometry" />
        </mxCell>
        <mxCell id="YGYwwZZyrYNIG7kx0JeW-33" value="" style="group" vertex="1" connectable="0" parent="YGYwwZZyrYNIG7kx0JeW-2">
          <mxGeometry x="20" y="110" width="130" height="30" as="geometry" />
        </mxCell>
        <mxCell id="YGYwwZZyrYNIG7kx0JeW-34" value="" style="shape=partialRectangle;whiteSpace=wrap;html=1;left=0;right=0;fillColor=none;strokeWidth=2;sketch=1;curveFitting=1;jiggle=2;strokeColor=#575757;" vertex="1" parent="YGYwwZZyrYNIG7kx0JeW-33">
          <mxGeometry y="2.5" width="30" height="25" as="geometry" />
        </mxCell>
        <mxCell id="YGYwwZZyrYNIG7kx0JeW-35" value="" style="edgeStyle=none;orthogonalLoop=1;jettySize=auto;html=1;rounded=0;exitX=0;exitY=0.5;exitDx=0;exitDy=0;endArrow=none;endFill=0;strokeWidth=2;sketch=1;curveFitting=1;jiggle=2;strokeColor=#575757;" edge="1" parent="YGYwwZZyrYNIG7kx0JeW-33" source="YGYwwZZyrYNIG7kx0JeW-34">
          <mxGeometry width="80" relative="1" as="geometry">
            <mxPoint x="-165" y="205.41666666666669" as="sourcePoint" />
            <mxPoint x="30" y="15.5" as="targetPoint" />
            <Array as="points" />
          </mxGeometry>
        </mxCell>
        <mxCell id="YGYwwZZyrYNIG7kx0JeW-36" value="Indonesian" style="text;strokeColor=none;align=left;fillColor=none;html=1;verticalAlign=middle;whiteSpace=wrap;rounded=0;fontSize=15;fontStyle=1;fontColor=#575757;" vertex="1" parent="YGYwwZZyrYNIG7kx0JeW-33">
          <mxGeometry x="50" width="80" height="30" as="geometry" />
        </mxCell>
        <mxCell id="YGYwwZZyrYNIG7kx0JeW-32" value="" style="group" vertex="1" connectable="0" parent="YGYwwZZyrYNIG7kx0JeW-2">
          <mxGeometry x="20" y="57.5" width="240" height="38.75" as="geometry" />
        </mxCell>
        <mxCell id="YGYwwZZyrYNIG7kx0JeW-23" value="" style="shape=partialRectangle;whiteSpace=wrap;html=1;left=0;right=0;fillColor=none;strokeWidth=2;sketch=1;curveFitting=1;jiggle=2;strokeColor=#575757;" vertex="1" parent="YGYwwZZyrYNIG7kx0JeW-32">
          <mxGeometry y="2.5" width="30" height="25" as="geometry" />
        </mxCell>
        <mxCell id="YGYwwZZyrYNIG7kx0JeW-24" value="" style="edgeStyle=none;orthogonalLoop=1;jettySize=auto;html=1;rounded=0;exitX=0;exitY=0.5;exitDx=0;exitDy=0;endArrow=none;endFill=0;strokeWidth=2;sketch=1;curveFitting=1;jiggle=2;strokeColor=#575757;" edge="1" parent="YGYwwZZyrYNIG7kx0JeW-32" source="YGYwwZZyrYNIG7kx0JeW-23">
          <mxGeometry width="80" relative="1" as="geometry">
            <mxPoint x="-165" y="205.41666666666669" as="sourcePoint" />
            <mxPoint x="30" y="15.5" as="targetPoint" />
            <Array as="points" />
          </mxGeometry>
        </mxCell>
        <mxCell id="YGYwwZZyrYNIG7kx0JeW-27" value="English" style="text;strokeColor=none;align=left;fillColor=none;html=1;verticalAlign=middle;whiteSpace=wrap;rounded=0;fontSize=15;fontStyle=1;fontColor=#575757;" vertex="1" parent="YGYwwZZyrYNIG7kx0JeW-32">
          <mxGeometry x="50" width="80" height="30" as="geometry" />
        </mxCell>
      </root>
    </mxGraphModel>
  </diagram>
</mxfile>
